<?xml version="1.0" encoding="UTF-8" standalone="no"?>
<!-- Created with Inkscape (http://www.inkscape.org/) -->
<svg
   xmlns:dc="http://purl.org/dc/elements/1.1/"
   xmlns:cc="http://creativecommons.org/ns#"
   xmlns:rdf="http://www.w3.org/1999/02/22-rdf-syntax-ns#"
   xmlns:svg="http://www.w3.org/2000/svg"
   xmlns="http://www.w3.org/2000/svg"
   xmlns:xlink="http://www.w3.org/1999/xlink"
   xmlns:sodipodi="http://sodipodi.sourceforge.net/DTD/sodipodi-0.dtd"
   xmlns:inkscape="http://www.inkscape.org/namespaces/inkscape"
   width="747.34698"
   height="1046.2856"
   id="svg2"
   sodipodi:version="0.32"
   inkscape:version="0.46"
   version="1.0"
   sodipodi:docname="Cards-J-Diamond.svg"
   inkscape:output_extension="org.inkscape.output.svg.inkscape">
  <defs
     id="defs4">
    <inkscape:perspective
       sodipodi:type="inkscape:persp3d"
       inkscape:vp_x="0 : 526.18109 : 1"
       inkscape:vp_y="0 : 1000 : 0"
       inkscape:vp_z="744.09448 : 526.18109 : 1"
       inkscape:persp3d-origin="372.04724 : 350.78739 : 1"
       id="perspective10" />
    <inkscape:perspective
       id="perspective2390"
       inkscape:persp3d-origin="372.04724 : 350.78739 : 1"
       inkscape:vp_z="744.09448 : 526.18109 : 1"
       inkscape:vp_y="0 : 1000 : 0"
       inkscape:vp_x="0 : 526.18109 : 1"
       sodipodi:type="inkscape:persp3d" />
  </defs>
  <sodipodi:namedview
     id="base"
     pagecolor="#ffffff"
     bordercolor="#666666"
     borderopacity="1.0"
     gridtolerance="10000"
     guidetolerance="10"
     objecttolerance="10"
     inkscape:pageopacity="0.0"
     inkscape:pageshadow="2"
     inkscape:zoom="0.7"
     inkscape:cx="148.35165"
     inkscape:cy="579.13539"
     inkscape:document-units="px"
     inkscape:current-layer="g2751"
     showgrid="false"
     showguides="true"
     inkscape:guide-bbox="true"
     inkscape:window-width="1280"
     inkscape:window-height="998"
     inkscape:window-x="0"
     inkscape:window-y="0" />
  <metadata
     id="metadata7">
    <rdf:RDF>
      <cc:Work
         rdf:about="">
        <dc:format>image/svg+xml</dc:format>
        <dc:type
           rdf:resource="http://purl.org/dc/dcmitype/StillImage" />
      </cc:Work>
    </rdf:RDF>
  </metadata>
  <g
     inkscape:label="Layer 1"
     inkscape:groupmode="layer"
     id="layer1"
     transform="translate(2.2448993,-0.6479052)">
    <g
       id="g2775"
       transform="translate(-2.0407968,-11.714273)">
      <g
         id="g2797">
        <g
           id="g2751"
           transform="translate(2.7682687,0.6819287)">
          <text
             xml:space="preserve"
             style="font-size:144px;font-style:normal;font-weight:normal;text-align:center;text-anchor:middle;fill:#ff0000;fill-opacity:1;stroke:none;stroke-width:1px;stroke-linecap:butt;stroke-linejoin:miter;stroke-opacity:1;font-family:Arial"
             x="53.478466"
             y="158.36212"
             id="text2396"><tspan
               style="font-style:normal;font-variant:normal;font-weight:normal;font-stretch:normal;text-align:center;text-anchor:middle;fill:#ff0000;font-family:Arial Narrow;-inkscape-font-specification:Arial Narrow"
               sodipodi:role="line"
               id="tspan2398"
               x="53.478466"
               y="158.36212">J</tspan></text>
          <text
             id="text2702"
             y="298.36212"
             x="54.779247"
             style="font-size:144px;font-style:normal;font-weight:normal;text-align:center;text-anchor:middle;fill:#ff0000;fill-opacity:1;stroke:none;stroke-width:1px;stroke-linecap:butt;stroke-linejoin:miter;stroke-opacity:1;font-family:Arial"
             xml:space="preserve"><tspan
               y="298.36212"
               x="54.779247"
               id="tspan2704"
               sodipodi:role="line"
               style="font-style:normal;font-variant:normal;font-weight:normal;font-stretch:normal;text-align:center;text-anchor:middle;fill:#ff0000;font-family:Arial Narrow;-inkscape-font-specification:Arial Narrow">♦</tspan></text>
        </g>
        <use
           x="0"
           y="0"
           xlink:href="#g2751"
           id="use2757"
           transform="matrix(-1,0,0,-1,746.93878,1071.01)"
           width="747.34698"
           height="1046.2856" />
      </g>
      <rect
         style="opacity:0.77520003999999998;fill:none;fill-opacity:1;stroke:#000000;stroke-width:8.5;stroke-linecap:square;stroke-linejoin:miter;stroke-miterlimit:4;stroke-dasharray:none;stroke-opacity:1"
         id="rect3077"
         width="508.57144"
         height="862.85712"
         x="119.18367"
         y="104.07644" />
    </g>
    <path
       sodipodi:nodetypes="ccscccc"
       id="path3918"
       d="M 309.89796,316.21927 L 438.82653,304.07641 C 448.85157,306.15365 439.57428,321.15705 448.22049,324.68528 C 538.64583,361.58486 576.77443,459.37246 620.39287,510.09943 L 122.46938,510.21927 C 146.21086,403.46884 219.14627,408.24124 309.89796,344.7907 L 309.89796,316.21927 z"
       style="fill:#ff0000;fill-opacity:1;fill-rule:nonzero;stroke:#ff0000;stroke-width:1;stroke-linecap:butt;stroke-linejoin:miter;marker:none;marker-start:none;marker-mid:none;marker-end:none;stroke-miterlimit:4;stroke-dasharray:none;stroke-dashoffset:0;stroke-opacity:1;visibility:visible;display:inline;overflow:visible;enable-background:accumulate" />
    <text
       xml:space="preserve"
       style="font-size:250px;font-style:normal;font-weight:normal;text-align:center;text-anchor:middle;fill:#ff0000;fill-opacity:1;stroke:none;stroke-width:1px;stroke-linecap:butt;stroke-linejoin:miter;stroke-opacity:1;font-family:Arial"
       x="195.02234"
       y="264.92499"
       id="text2941"><tspan
         sodipodi:role="line"
         id="tspan2943"
         x="195.02234"
         y="264.92499">♦</tspan></text>
    <use
       x="0"
       y="0"
       xlink:href="#text2941"
       id="use3017"
       transform="matrix(1,0,0,-1,352,1039.5814)"
       width="747.34698"
       height="1046.2856" />
    <g
       id="g3932">
      <path
         transform="translate(-2.2448993,0.6479052)"
         sodipodi:nodetypes="ccccccccccccsc"
         id="path3867"
         d="M 327.64657,222.35831 C 324.63904,231.63267 322.99486,240.71984 324.22409,248.60524 L 317.36332,270.45504 L 317.42174,273.29789 C 317.3772,273.63154 320.38953,276.86884 323.47028,277.20254 L 322.14647,291.40319 C 321.03483,292.16983 323.93206,292.44043 323.93206,293.70312 C 323.93206,295.12399 321.54604,295.73778 321.54604,295.73778 C 323.32197,302.36563 314.31294,309.12025 320.75761,315.56492 C 324.92641,319.73371 362.05357,315.49993 362.05357,315.49993 C 410.04645,315.49993 410.625,280.49993 410.625,280.49993 C 410.625,240.09067 408.0427,214.48593 408.0427,214.48593 C 405.56069,214.47154 389.95745,211.66522 373.0709,213.37669 C 354.52263,215.25657 343.42707,217.57605 327.64657,222.35831 z"
         style="opacity:1;fill:#ddbdd0;fill-opacity:1;fill-rule:nonzero;stroke:#ddbdd0;stroke-width:1;stroke-linecap:butt;stroke-linejoin:miter;marker:none;marker-start:none;marker-mid:none;marker-end:none;stroke-miterlimit:4;stroke-dasharray:none;stroke-dashoffset:0;stroke-opacity:1;visibility:visible;display:inline;overflow:visible;enable-background:accumulate" />
      <path
         transform="translate(-2.2448993,0.6479052)"
         sodipodi:nodetypes="ccccc"
         id="path3854"
         d="M 295.93408,130.98173 L 319.72931,199.668 C 423.92394,185.93561 413.98386,195.7369 447.52454,199.668 L 467.31976,130.98173 C 424.25971,115.56812 368.183,111.43248 295.93408,130.98173 z"
         style="opacity:1;fill:#000000;fill-opacity:1;fill-rule:nonzero;stroke:#000000;stroke-width:1;stroke-linecap:butt;stroke-linejoin:miter;marker:none;marker-start:none;marker-mid:none;marker-end:none;stroke-miterlimit:4;stroke-dasharray:none;stroke-dashoffset:0;stroke-opacity:1;visibility:visible;display:inline;overflow:visible;enable-background:accumulate" />
      <path
         transform="translate(-2.2448993,0.6479052)"
         sodipodi:nodetypes="ccccc"
         id="path3871"
         d="M 380.22773,208.80604 L 389.24855,329.26226 L 452.84965,319.96071 L 443.54976,221.97602 L 380.22773,208.80604 z"
         style="opacity:1;fill:#c6c801;fill-opacity:1;fill-rule:nonzero;stroke:#000000;stroke-width:1;stroke-linecap:butt;stroke-linejoin:miter;marker:none;marker-start:none;marker-mid:none;marker-end:none;stroke-miterlimit:4;stroke-dasharray:none;stroke-dashoffset:0;stroke-opacity:1;visibility:visible;display:inline;overflow:visible;enable-background:accumulate" />
      <path
         sodipodi:nodetypes="cc"
         id="path3875"
         d="M 328.77304,237.5561 C 336.86163,236.39472 343.04811,237.9052 350.25918,243.73584"
         style="opacity:1;fill:none;fill-opacity:0.70348834000000005;fill-rule:nonzero;stroke:#000000;stroke-width:4;stroke-linecap:round;stroke-linejoin:round;marker:none;marker-start:none;marker-mid:none;marker-end:none;stroke-miterlimit:4;stroke-dasharray:none;stroke-dashoffset:0;stroke-opacity:1;visibility:visible;display:inline;overflow:visible;enable-background:accumulate"
         transform="translate(4.3e-6,0)" />
      <path
         transform="translate(-2.2448993,0.6479052)"
         id="path3902"
         d="M 386.69643,212.89279 L 396.78572,328.24993"
         style="opacity:1;fill:none;fill-opacity:0.70348834000000005;fill-rule:nonzero;stroke:#000000;stroke-width:1;stroke-linecap:butt;stroke-linejoin:miter;marker:none;marker-start:none;marker-mid:none;marker-end:none;stroke-miterlimit:4;stroke-dasharray:none;stroke-dashoffset:0;stroke-opacity:1;visibility:visible;display:inline;overflow:visible;enable-background:accumulate" />
      <use
         transform="translate(8.0000047,-1.0714284)"
         height="1046.2856"
         width="747.34698"
         id="use3904"
         xlink:href="#path3902"
         y="0"
         x="0" />
      <use
         transform="translate(8.0000047,-1.0714284)"
         height="1046.2856"
         width="747.34698"
         id="use3906"
         xlink:href="#use3904"
         y="0"
         x="0" />
      <use
         height="1046.2856"
         width="747.34698"
         transform="translate(8.0000047,-1.6428572)"
         id="use3908"
         xlink:href="#use3906"
         y="0"
         x="0" />
      <use
         transform="translate(8.0000047,-0.7142856)"
         height="1046.2856"
         width="747.34698"
         id="use3910"
         xlink:href="#use3908"
         y="0"
         x="0" />
      <use
         height="1046.2856"
         width="747.34698"
         transform="translate(8.0000047,-1.0714284)"
         id="use3912"
         xlink:href="#use3910"
         y="0"
         x="0" />
      <use
         transform="translate(8.0000047,-2)"
         height="1046.2856"
         width="747.34698"
         id="use3914"
         xlink:href="#use3912"
         y="0"
         x="0" />
      <path
         sodipodi:nodetypes="cccc"
         id="path3877"
         d="M 334.32544,243.64262 C 338.53728,244.53072 338.96506,244.69388 342.45004,248.76896 C 338.78176,250.3063 337.43872,250.42988 333.5777,250.12946 C 325.75665,248.82921 328.00943,242.761 334.32544,243.64262 z"
         style="opacity:1;fill:#ffffff;fill-opacity:1;fill-rule:nonzero;stroke:#000000;stroke-width:0.5;stroke-linecap:butt;stroke-linejoin:miter;marker:none;marker-start:none;marker-mid:none;marker-end:none;stroke-miterlimit:4;stroke-dasharray:none;stroke-dashoffset:0;stroke-opacity:1;visibility:visible;display:inline;overflow:visible;enable-background:accumulate" />
      <path
         transform="matrix(4.1172042,0,0,4.1875143,-1049.1044,-783.59413)"
         d="M 336.57021,246.05542 A 0.75761443,0.69447988 0 1 1 335.05498,246.05542 A 0.75761443,0.69447988 0 1 1 336.57021,246.05542 z"
         sodipodi:ry="0.69447988"
         sodipodi:rx="0.75761443"
         sodipodi:cy="246.05542"
         sodipodi:cx="335.81259"
         id="path3885"
         style="opacity:1;fill:#6c5353;fill-opacity:1;stroke:#000000;stroke-width:0.12041780000000001;stroke-linecap:round;stroke-linejoin:round;stroke-miterlimit:4;stroke-dasharray:none;stroke-opacity:1"
         sodipodi:type="arc" />
      <path
         sodipodi:type="arc"
         style="opacity:1;fill:#000000;fill-opacity:1;stroke:#000000;stroke-width:0.5;stroke-linecap:round;stroke-linejoin:round;stroke-miterlimit:4;stroke-dasharray:none;stroke-opacity:1"
         id="path3887"
         sodipodi:cx="335.81259"
         sodipodi:cy="246.05542"
         sodipodi:rx="0.75761443"
         sodipodi:ry="0.69447988"
         d="M 336.57021,246.05542 A 0.75761443,0.69447988 0 1 1 335.05498,246.05542 A 0.75761443,0.69447988 0 1 1 336.57021,246.05542 z"
         transform="translate(-2.4974376,0.8373088)" />
      <path
         sodipodi:nodetypes="csssssssc"
         id="path3895"
         d="M 336.97237,288.78681 C 337.08707,288.6762 337.39047,289.53513 337.45209,289.64436 C 337.62746,289.95527 337.09273,290.29311 336.80441,290.40663 C 336.19223,290.64766 335.27662,289.70596 335.1057,289.13508 C 334.79786,288.10694 335.62601,287.13488 336.59328,286.90322 C 338.16052,286.52786 339.58988,287.7876 339.88423,289.27362 C 340.32728,291.51041 338.52888,293.52143 336.39153,293.86181 C 335.28105,294.03866 332.62498,293.18128 329.11888,292.332 C 325.67038,291.49668 323.48432,290.64605 322.34538,290.07404"
         style="fill:none;fill-rule:evenodd;stroke:#000000;stroke-width:1.6;stroke-linecap:round;stroke-linejoin:miter;stroke-opacity:1;stroke-miterlimit:4;stroke-dasharray:none"
         transform="translate(-2.2448993,0.6479052)" />
      <path
         sodipodi:nodetypes="ccccc"
         d="M 441.27964,222.31591 L 445.27964,200.31591 C 411.73896,196.38481 421.67904,186.58352 317.48441,200.31591 L 325.48441,222.31591 C 390.78817,212.11905 395.11205,211.31374 441.27964,222.31591 z"
         style="opacity:1;fill:#ff0000;fill-opacity:1;fill-rule:nonzero;stroke:#ff0000;stroke-width:1;stroke-linecap:butt;stroke-linejoin:miter;marker:none;marker-start:none;marker-mid:none;marker-end:none;stroke-miterlimit:4;stroke-dasharray:none;stroke-dashoffset:0;stroke-opacity:1;visibility:visible;display:inline;overflow:visible;enable-background:accumulate"
         id="path3858"
         transform="translate(4.3e-6,0)" />
    </g>
    <use
       x="0"
       y="0"
       xlink:href="#path3918"
       id="use3954"
       transform="matrix(-1,0,0,-1,743.36733,1018.4066)"
       width="747.34698"
       height="1046.2856" />
    <use
       x="0"
       y="0"
       xlink:href="#g3932"
       id="use3956"
       transform="matrix(-1,0,0,-1,743.36733,1018.4066)"
       width="747.34698"
       height="1046.2856" />
    <g
       id="g3982">
      <path
         sodipodi:nodetypes="cccc"
         transform="translate(-2.2448993,0.6479052)"
         id="path3980"
         d="M 596.64286,202.35707 L 519.32201,176.28003 L 519.32201,311.99993 L 597.05755,285.81177"
         style="opacity:1;fill:#c4c4c4;fill-opacity:1;fill-rule:nonzero;stroke:#000000;stroke-width:1;stroke-linecap:butt;stroke-linejoin:miter;marker:none;marker-start:none;marker-mid:none;marker-end:none;stroke-miterlimit:4;stroke-dasharray:none;stroke-dashoffset:0;stroke-opacity:1;visibility:visible;display:inline;overflow:visible;enable-background:accumulate" />
      <path
         id="path3978"
         d="M 593.24001,481.20752 C 591.21971,475.1466 593.24001,201.39526 593.24001,201.39526 L 609.40246,178.16176 L 621.52429,178.16176 L 621.52429,512.52225 L 593.24001,481.20752 z"
         style="opacity:1;fill:#808000;fill-opacity:1;fill-rule:nonzero;stroke:#000000;stroke-width:1;stroke-linecap:butt;stroke-linejoin:miter;marker:none;marker-start:none;marker-mid:none;marker-end:none;stroke-miterlimit:4;stroke-dasharray:none;stroke-dashoffset:0;stroke-opacity:1;visibility:visible;display:inline;overflow:visible;enable-background:accumulate" />
      <path
         style="opacity:1;fill:#ff0000;fill-opacity:1;fill-rule:nonzero;stroke:#ff0000;stroke-width:1;stroke-linecap:butt;stroke-linejoin:miter;marker:none;marker-start:none;marker-mid:none;marker-end:none;stroke-miterlimit:4;stroke-dasharray:none;stroke-dashoffset:0;stroke-opacity:1;visibility:visible;display:inline;overflow:visible;enable-background:accumulate"
         d="M 623.57143,177.71421 L 608.92857,204.14279 L 608.92857,496.46421 L 623.57143,511.28564"
         id="path3988"
         transform="translate(-2.2448993,0.6479052)"
         sodipodi:nodetypes="cccc" />
    </g>
    <use
       x="0"
       y="0"
       xlink:href="#g3982"
       id="use3986"
       transform="matrix(-1,0,0,-1,742.6014,1019.4502)"
       width="747.34698"
       height="1046.2856" />
  </g>
</svg>
