<?xml version="1.0" encoding="UTF-8" standalone="no"?>
<!-- Created with Inkscape (http://www.inkscape.org/) -->
<svg
   xmlns:dc="http://purl.org/dc/elements/1.1/"
   xmlns:cc="http://creativecommons.org/ns#"
   xmlns:rdf="http://www.w3.org/1999/02/22-rdf-syntax-ns#"
   xmlns:svg="http://www.w3.org/2000/svg"
   xmlns="http://www.w3.org/2000/svg"
   xmlns:xlink="http://www.w3.org/1999/xlink"
   xmlns:sodipodi="http://sodipodi.sourceforge.net/DTD/sodipodi-0.dtd"
   xmlns:inkscape="http://www.inkscape.org/namespaces/inkscape"
   width="747.34698"
   height="1046.2856"
   id="svg2"
   sodipodi:version="0.32"
   inkscape:version="0.46"
   version="1.0"
   sodipodi:docname="Cards-K-Club.svg"
   inkscape:output_extension="org.inkscape.output.svg.inkscape">
  <defs
     id="defs4">
    <inkscape:perspective
       sodipodi:type="inkscape:persp3d"
       inkscape:vp_x="0 : 526.18109 : 1"
       inkscape:vp_y="0 : 1000 : 0"
       inkscape:vp_z="744.09448 : 526.18109 : 1"
       inkscape:persp3d-origin="372.04724 : 350.78739 : 1"
       id="perspective10" />
    <inkscape:perspective
       id="perspective2390"
       inkscape:persp3d-origin="372.04724 : 350.78739 : 1"
       inkscape:vp_z="744.09448 : 526.18109 : 1"
       inkscape:vp_y="0 : 1000 : 0"
       inkscape:vp_x="0 : 526.18109 : 1"
       sodipodi:type="inkscape:persp3d" />
  </defs>
  <sodipodi:namedview
     id="base"
     pagecolor="#ffffff"
     bordercolor="#666666"
     borderopacity="1.0"
     gridtolerance="10000"
     guidetolerance="10"
     objecttolerance="10"
     inkscape:pageopacity="0.0"
     inkscape:pageshadow="2"
     inkscape:zoom="0.70710678"
     inkscape:cx="354.82514"
     inkscape:cy="614.66454"
     inkscape:document-units="px"
     inkscape:current-layer="g2797"
     showgrid="false"
     showguides="true"
     inkscape:guide-bbox="true"
     inkscape:window-width="1280"
     inkscape:window-height="998"
     inkscape:window-x="0"
     inkscape:window-y="0" />
  <metadata
     id="metadata7">
    <rdf:RDF>
      <cc:Work
         rdf:about="">
        <dc:format>image/svg+xml</dc:format>
        <dc:type
           rdf:resource="http://purl.org/dc/dcmitype/StillImage" />
      </cc:Work>
    </rdf:RDF>
  </metadata>
  <g
     inkscape:label="Layer 1"
     inkscape:groupmode="layer"
     id="layer1"
     transform="translate(2.2448993,-0.6479052)">
    <g
       id="g4012"
       transform="matrix(2.2258717,0,0,2.2258717,-704.74175,-486.27034)">
      <path
         id="path3994"
         d="M 563.18541,384.24425 L 563.18541,304.80247 L 568.42928,291.32461 L 573.67316,304.80247 L 573.67316,384.24425"
         style="opacity:1;fill:#bfbfbf;fill-opacity:1;fill-rule:nonzero;stroke:#000000;stroke-width:0.4492622;stroke-linecap:butt;stroke-linejoin:miter;marker:none;marker-start:none;marker-mid:none;marker-end:none;stroke-miterlimit:4;stroke-dasharray:none;stroke-dashoffset:0;stroke-opacity:1;visibility:visible;display:inline;overflow:visible;enable-background:accumulate"
         sodipodi:nodetypes="ccccc" />
      <path
         id="path4168"
         style="fill:#bbb700;fill-opacity:1;fill-rule:nonzero;stroke:#000000;stroke-width:0.4492622;stroke-linecap:butt;stroke-linejoin:miter;marker:none;marker-start:none;marker-mid:none;marker-end:none;stroke-miterlimit:4;stroke-dasharray:none;stroke-dashoffset:0;stroke-opacity:1;visibility:visible;display:inline;overflow:visible;enable-background:accumulate"
         d="M 563.67728,387.91264 L 551.43302,387.91262 C 551.43302,387.91262 547.7567,385.64301 547.7763,384.02257 C 547.79591,382.40213 551.61448,380.13253 551.61448,380.13253 L 568.42929,380.13251 L 585.2441,380.13253 C 585.2441,380.13253 589.06266,382.40213 589.08227,384.02257 C 589.10187,385.64301 585.42556,387.91262 585.42556,387.91262 L 573.18129,387.91264 L 573.22898,424.53821 C 573.22898,427.43078 563.67728,427.27059 563.67728,424.53821 L 563.67728,387.91264 z"
         sodipodi:nodetypes="cczccczccccc" />
    </g>
    <use
       x="0"
       y="0"
       xlink:href="#g4012"
       id="use4017"
       transform="matrix(-1,0,0,-1,735.78063,1009.1352)"
       width="747.34698"
       height="1046.2856" />
    <g
       id="g2775"
       transform="translate(-2.0407968,-11.714273)">
      <g
         id="g2797">
        <g
           id="g2751"
           transform="translate(2.7682687,0.6819287)">
          <text
             xml:space="preserve"
             style="font-size:144px;font-style:normal;font-weight:normal;text-align:center;text-anchor:middle;fill:#000000;fill-opacity:1;stroke:none;stroke-width:1px;stroke-linecap:butt;stroke-linejoin:miter;stroke-opacity:1;font-family:Arial"
             x="50.455029"
             y="158.36212"
             id="text2396"><tspan
               style="font-style:normal;font-variant:normal;font-weight:normal;font-stretch:normal;text-align:center;text-anchor:middle;font-family:Arial Narrow;-inkscape-font-specification:Arial Narrow"
               sodipodi:role="line"
               id="tspan2398"
               x="50.455029"
               y="158.36212">K</tspan></text>
          <text
             id="text2702"
             y="298.36212"
             x="54.779247"
             style="font-size:144px;font-style:normal;font-weight:normal;text-align:center;text-anchor:middle;fill:#000000;fill-opacity:1;stroke:none;stroke-width:1px;stroke-linecap:butt;stroke-linejoin:miter;stroke-opacity:1;font-family:Arial"
             xml:space="preserve"><tspan
               y="298.36212"
               x="54.779247"
               id="tspan2704"
               sodipodi:role="line"
               style="font-style:normal;font-variant:normal;font-weight:normal;font-stretch:normal;text-align:center;text-anchor:middle;font-family:Arial Narrow;-inkscape-font-specification:Arial Narrow">♣</tspan></text>
        </g>
        <use
           x="0"
           y="0"
           xlink:href="#g2751"
           id="use2757"
           transform="matrix(-1,0,0,-1,746.93878,1071.01)"
           width="747.34698"
           height="1046.2856" />
      </g>
      <rect
         style="opacity:0.77520003999999998;fill:none;fill-opacity:1;stroke:#000000;stroke-width:8.5;stroke-linecap:square;stroke-linejoin:miter;stroke-miterlimit:4;stroke-dasharray:none;stroke-opacity:1"
         id="rect3077"
         width="508.57144"
         height="862.85712"
         x="119.18367"
         y="104.07644" />
    </g>
    <text
       xml:space="preserve"
       style="font-size:250px;font-style:normal;font-weight:normal;fill:#000000;fill-opacity:1;stroke:none;stroke-width:1px;stroke-linecap:butt;stroke-linejoin:miter;stroke-opacity:1;font-family:Arial"
       x="205.02234"
       y="264.92499"
       id="text2941"><tspan
         sodipodi:role="line"
         id="tspan2943"
         x="205.02234"
         y="264.92499"
         style="text-align:center;text-anchor:middle">♣</tspan></text>
    <use
       x="0"
       y="0"
       xlink:href="#text2941"
       id="use3017"
       transform="matrix(1,0,0,-1,328,1039.5814)"
       width="747.34698"
       height="1046.2856" />
    <path
       sodipodi:nodetypes="ccscccc"
       id="path3918"
       d="M 309.89796,316.21927 L 438.82653,304.07641 C 448.85157,306.15365 443.80095,316.45892 448.22049,324.68528 C 491.14583,404.58486 618.56123,481.50444 620.39287,510.09943 L 122.46938,510.21927 C 144.45962,477.74043 219.14627,408.24124 309.89796,344.7907 L 309.89796,316.21927 z"
       style="fill:#000000;fill-opacity:1;fill-rule:nonzero;stroke:#000000;stroke-width:1;stroke-linecap:butt;stroke-linejoin:miter;marker:none;marker-start:none;marker-mid:none;marker-end:none;stroke-miterlimit:4;stroke-dasharray:none;stroke-dashoffset:0;stroke-opacity:1;visibility:visible;display:inline;overflow:visible;enable-background:accumulate" />
    <g
       id="g3932">
      <path
         transform="translate(-2.2448993,0.6479052)"
         sodipodi:nodetypes="ccccccccccccsc"
         id="path3867"
         d="M 327.64657,222.35831 C 324.63904,231.63267 325.07764,240.67038 324.22409,248.60524 C 324.22409,250.39986 317.36332,270.45504 317.36332,270.45504 L 317.42174,273.29789 C 317.3772,273.63154 320.38953,276.86884 323.47028,277.20254 L 322.14647,291.40319 C 321.03483,292.16983 327.93206,290.44043 327.93206,291.70312 C 327.93206,293.12399 321.54604,295.73778 321.54604,295.73778 C 321.54604,302.49383 317.20097,312.00828 320.75761,315.56492 C 324.92641,319.73371 362.05357,315.49993 362.05357,315.49993 C 410.04645,315.49993 410.625,280.49993 410.625,280.49993 C 410.625,240.09067 408.0427,214.48593 408.0427,214.48593 C 405.56069,214.47154 389.95745,211.66522 373.0709,213.37669 C 354.52263,215.25657 343.42707,217.57605 327.64657,222.35831 z"
         style="opacity:1;fill:#ddbdd0;fill-opacity:1;fill-rule:nonzero;stroke:#ddbdd0;stroke-width:1;stroke-linecap:butt;stroke-linejoin:miter;marker:none;marker-start:none;marker-mid:none;marker-end:none;stroke-miterlimit:4;stroke-dasharray:none;stroke-dashoffset:0;stroke-opacity:1;visibility:visible;display:inline;overflow:visible;enable-background:accumulate" />
      <path
         transform="translate(-2.2448993,0.6479052)"
         sodipodi:nodetypes="ccccc"
         id="path3871"
         d="M 380.22773,208.80604 L 389.24855,349.26226 L 452.84965,335.96071 L 443.54976,221.97602 L 380.22773,208.80604 z"
         style="opacity:1;fill:#b2b2b2;fill-opacity:1;fill-rule:nonzero;stroke:#000000;stroke-width:1;stroke-linecap:butt;stroke-linejoin:miter;marker:none;marker-start:none;marker-mid:none;marker-end:none;stroke-miterlimit:4;stroke-dasharray:none;stroke-dashoffset:0;stroke-opacity:1;visibility:visible;display:inline;overflow:visible;enable-background:accumulate" />
      <path
         sodipodi:nodetypes="cc"
         id="path3875"
         d="M 328.77304,237.5561 C 336.86163,236.39472 343.04811,237.9052 350.25918,243.73584"
         style="opacity:1;fill:none;fill-opacity:0.70348834000000005;fill-rule:nonzero;stroke:#000000;stroke-width:4;stroke-linecap:round;stroke-linejoin:round;marker:none;marker-start:none;marker-mid:none;marker-end:none;stroke-miterlimit:4;stroke-dasharray:none;stroke-dashoffset:0;stroke-opacity:1;visibility:visible;display:inline;overflow:visible;enable-background:accumulate"
         transform="translate(4.3e-6,0)" />
      <path
         transform="translate(-2.2448993,0.6479052)"
         id="path3902"
         d="M 386.69643,212.89279 L 396.78572,374.24993"
         style="opacity:1;fill:none;fill-opacity:0.70348834000000005;fill-rule:nonzero;stroke:#000000;stroke-width:1;stroke-linecap:butt;stroke-linejoin:miter;marker:none;marker-start:none;marker-mid:none;marker-end:none;stroke-miterlimit:4;stroke-dasharray:none;stroke-dashoffset:0;stroke-opacity:1;visibility:visible;display:inline;overflow:visible;enable-background:accumulate"
         sodipodi:nodetypes="cc" />
      <use
         transform="translate(8.0000047,2.9285716)"
         height="1046.2856"
         width="747.34698"
         id="use3904"
         xlink:href="#path3902"
         y="0"
         x="0" />
      <use
         transform="translate(8.0000047,2.9285716)"
         height="1046.2856"
         width="747.34698"
         id="use3906"
         xlink:href="#use3904"
         y="0"
         x="0" />
      <use
         height="1046.2856"
         width="747.34698"
         transform="translate(8.0000047,2.3571428)"
         id="use3908"
         xlink:href="#use3906"
         y="0"
         x="0" />
      <use
         transform="translate(8.0000047,5.285714)"
         height="1046.2856"
         width="747.34698"
         id="use3910"
         xlink:href="#use3908"
         y="0"
         x="0" />
      <use
         height="1046.2856"
         width="747.34698"
         transform="translate(8.0000047,0.928572)"
         id="use3912"
         xlink:href="#use3910"
         y="0"
         x="0" />
      <use
         transform="translate(8.0000047,10)"
         height="1046.2856"
         width="747.34698"
         id="use3914"
         xlink:href="#use3912"
         y="0"
         x="0" />
      <path
         sodipodi:nodetypes="cccc"
         id="path3877"
         d="M 334.32544,243.64262 C 338.53728,244.53072 338.96506,244.69388 342.45004,248.76896 C 338.78176,250.3063 337.43872,250.42988 333.5777,250.12946 C 325.75665,248.82921 328.00943,242.761 334.32544,243.64262 z"
         style="opacity:1;fill:#ffffff;fill-opacity:1;fill-rule:nonzero;stroke:#000000;stroke-width:0.5;stroke-linecap:butt;stroke-linejoin:miter;marker:none;marker-start:none;marker-mid:none;marker-end:none;stroke-miterlimit:4;stroke-dasharray:none;stroke-dashoffset:0;stroke-opacity:1;visibility:visible;display:inline;overflow:visible;enable-background:accumulate" />
      <path
         transform="matrix(4.1172042,0,0,4.1875143,-1049.1044,-783.59413)"
         d="M 336.57021,246.05542 A 0.75761443,0.69447988 0 1 1 335.05498,246.05542 A 0.75761443,0.69447988 0 1 1 336.57021,246.05542 z"
         sodipodi:ry="0.69447988"
         sodipodi:rx="0.75761443"
         sodipodi:cy="246.05542"
         sodipodi:cx="335.81259"
         id="path3885"
         style="opacity:1;fill:#165044;fill-opacity:1;stroke:#000000;stroke-width:0.12041780000000001;stroke-linecap:round;stroke-linejoin:round;stroke-miterlimit:4;stroke-dasharray:none;stroke-opacity:1"
         sodipodi:type="arc" />
      <path
         sodipodi:type="arc"
         style="opacity:1;fill:#000000;fill-opacity:1;stroke:#000000;stroke-width:0.5;stroke-linecap:round;stroke-linejoin:round;stroke-miterlimit:4;stroke-dasharray:none;stroke-opacity:1"
         id="path3887"
         sodipodi:cx="335.81259"
         sodipodi:cy="246.05542"
         sodipodi:rx="0.75761443"
         sodipodi:ry="0.69447988"
         d="M 336.57021,246.05542 A 0.75761443,0.69447988 0 1 1 335.05498,246.05542 A 0.75761443,0.69447988 0 1 1 336.57021,246.05542 z"
         transform="translate(-2.4974376,0.8373088)" />
      <path
         style="opacity:1;fill:none;fill-opacity:0.70348834;fill-rule:nonzero;stroke:#5a5a5a;stroke-width:1;stroke-linecap:butt;stroke-linejoin:miter;marker:none;marker-start:none;marker-mid:none;marker-end:none;stroke-miterlimit:4;stroke-dasharray:none;stroke-dashoffset:0;stroke-opacity:1;visibility:visible;display:inline;overflow:visible;enable-background:accumulate"
         d="M 317.85332,305.78177 L 315.04082,312.43355"
         id="path4045"
         sodipodi:nodetypes="cc" />
      <use
         x="0"
         y="0"
         xlink:href="#path4045"
         id="use4061"
         transform="translate(2,0)"
         width="747.34698"
         height="1046.2856" />
      <use
         x="0"
         y="0"
         xlink:href="#use4061"
         id="use4063"
         transform="translate(2,0)"
         width="747.34698"
         height="1046.2856" />
      <use
         x="0"
         y="0"
         xlink:href="#use4063"
         id="use4065"
         transform="translate(2,0)"
         width="747.34698"
         height="1046.2856" />
      <use
         x="0"
         y="0"
         xlink:href="#use4065"
         id="use4067"
         transform="translate(2,0)"
         width="747.34698"
         height="1046.2856" />
      <use
         x="0"
         y="0"
         xlink:href="#use4067"
         id="use4069"
         transform="translate(2,0)"
         width="747.34698"
         height="1046.2856" />
      <use
         x="0"
         y="0"
         xlink:href="#use4069"
         id="use4071"
         transform="translate(2,0)"
         width="747.34698"
         height="1046.2856" />
      <use
         x="0"
         y="0"
         xlink:href="#use4071"
         id="use4073"
         transform="translate(2,0)"
         width="747.34698"
         height="1046.2856" />
      <use
         x="0"
         y="0"
         xlink:href="#use4073"
         id="use4075"
         transform="translate(2,0)"
         width="747.34698"
         height="1046.2856" />
      <use
         x="0"
         y="0"
         xlink:href="#use4075"
         id="use4077"
         transform="translate(2.1785714,0)"
         width="747.34698"
         height="1046.2856" />
      <use
         x="0"
         y="0"
         xlink:href="#path4045"
         id="use4121"
         transform="translate(0.8035714,7.2857143)"
         width="747.34698"
         height="1046.2856" />
      <use
         x="0"
         y="0"
         xlink:href="#use4121"
         id="use4123"
         transform="translate(2,0)"
         width="747.34698"
         height="1046.2856" />
      <use
         x="0"
         y="0"
         xlink:href="#use4123"
         id="use4125"
         transform="translate(2,0)"
         width="747.34698"
         height="1046.2856" />
      <use
         x="0"
         y="0"
         xlink:href="#use4125"
         id="use4127"
         transform="translate(2,0)"
         width="747.34698"
         height="1046.2856" />
      <use
         x="0"
         y="0"
         xlink:href="#use4127"
         id="use4129"
         transform="translate(2,0)"
         width="747.34698"
         height="1046.2856" />
      <use
         x="0"
         y="0"
         xlink:href="#use4129"
         id="use4131"
         transform="translate(2,0)"
         width="747.34698"
         height="1046.2856" />
      <use
         x="0"
         y="0"
         xlink:href="#use4131"
         id="use4133"
         transform="translate(2,0)"
         width="747.34698"
         height="1046.2856" />
      <use
         x="0"
         y="0"
         xlink:href="#use4133"
         id="use4135"
         transform="translate(2.0446429,0)"
         width="747.34698"
         height="1046.2856" />
      <use
         x="0"
         y="0"
         xlink:href="#use4135"
         id="use4139"
         transform="translate(2,0)"
         width="747.34698"
         height="1046.2856" />
      <use
         x="0"
         y="0"
         xlink:href="#use4139"
         id="use4141"
         transform="translate(2,0)"
         width="747.34698"
         height="1046.2856" />
      <use
         x="0"
         y="0"
         xlink:href="#use4141"
         id="use4143"
         transform="translate(2,0)"
         width="747.34698"
         height="1046.2856" />
      <path
         transform="translate(7.6529276e-2,-2.0306662)"
         style="fill:none;fill-rule:evenodd;stroke:#484848;stroke-width:1px;stroke-linecap:round;stroke-linejoin:miter;stroke-opacity:1"
         d="M 336.2628,290.82808 C 336.38278,290.73315 336.54106,290.86166 336.58969,290.97181 C 336.72811,291.28535 336.44037,291.59828 336.15421,291.67971 C 335.54663,291.85261 335.00515,291.31731 334.89536,290.75576 C 334.69764,289.74444 335.58016,288.89325 336.52618,288.7626 C 338.05898,288.55093 339.30667,289.88876 339.44856,291.33635 C 339.66213,293.5153 337.75392,295.25116 335.68072,295.39306 C 333.66612,295.53095 326.25537,293.05616 323.92857,291.99993"
         id="path4157"
         sodipodi:nodetypes="cssssssc" />
      <path
         style="opacity:1;fill:#bbb700;fill-opacity:1;fill-rule:nonzero;stroke:#000000;stroke-width:1;stroke-linecap:butt;stroke-linejoin:round;marker:none;marker-start:none;marker-mid:none;marker-end:none;stroke-miterlimit:4;stroke-dasharray:none;stroke-dashoffset:0;stroke-opacity:1;visibility:visible;display:inline;overflow:visible;enable-background:accumulate"
         d="M 323,225.28565 L 449,240.78565 L 451,198.78565 L 440.83013,160.83117 L 420.89535,195.3592 L 411.15609,159.01177 L 392.42556,191.454 L 383.1516,156.8431 L 364.99868,188.28489 L 356.17957,155.37151 L 336.39141,189.6456 L 336.39141,154.78565 L 328.0123,186.05689 L 323,225.28565 z"
         id="path4368"
         transform="translate(-2.2448993,0.6479052)" />
    </g>
    <use
       x="0"
       y="0"
       xlink:href="#path3918"
       id="use3954"
       transform="matrix(-1,0,0,-1,743.36733,1018.4066)"
       width="747.34698"
       height="1046.2856" />
    <use
       x="0"
       y="0"
       xlink:href="#g3932"
       id="use3956"
       transform="matrix(-1,0,0,-1,743.36733,1018.4066)"
       width="747.34698"
       height="1046.2856" />
    <path
       style="opacity:1;fill:#727272;fill-opacity:1;fill-rule:nonzero;stroke:none;stroke-width:1;stroke-linecap:butt;stroke-linejoin:miter;marker:none;stroke-miterlimit:4;stroke-dasharray:none;stroke-dashoffset:0;stroke-opacity:1;visibility:visible;display:inline;overflow:visible;enable-background:accumulate"
       d="M 560.0051,164.80025 L 560.0051,359.36666 L 561.0051,359.36666 L 561.0051,164.80025 L 560.5051,163.55807 L 560.0051,164.80025 z"
       id="path4179"
       sodipodi:nodetypes="cccccc" />
    <use
       x="0"
       y="0"
       xlink:href="#path4179"
       id="use4188"
       transform="matrix(-1,0,0,-1,735.77682,1009.1457)"
       width="747.34698"
       height="1046.2856" />
  </g>
</svg>
